<?xml version="1.0" encoding="utf-8"?>
<!-- Generator: Adobe Illustrator 23.0.1, SVG Export Plug-In . SVG Version: 6.00 Build 0)  -->
<svg version="1.1" id="图层_1" xmlns="http://www.w3.org/2000/svg" xmlns:xlink="http://www.w3.org/1999/xlink" x="0px" y="0px"
	 viewBox="0 0 2457 2457" style="enable-background:new 0 0 2457 2457;" xml:space="preserve">
<style type="text/css">
	.st0{fill:#EDE7E2;stroke:#684A1F;stroke-width:20;stroke-miterlimit:10;}
	.st1{fill:#A8875B;stroke:#684A1F;stroke-width:20;stroke-miterlimit:10;}
	.st2{fill:#D3B99B;stroke:#684A1F;stroke-width:20;stroke-miterlimit:10;}
	.st3{fill:#99E56C;stroke:#684A1F;stroke-width:20;stroke-miterlimit:10;}
	.st4{fill:#CE995B;stroke:#684A1F;stroke-width:20;stroke-miterlimit:10;}
	.st5{fill:#684A1F;}
	.st6{fill:#30210E;stroke:#231F20;stroke-linecap:round;stroke-miterlimit:10;}
	.st7{fill:#F4536A;}
	.st8{fill:none;stroke:#684A1F;stroke-width:10;stroke-miterlimit:10;}
</style>
<circle class="st0" cx="1228.5" cy="1228.5" r="1169.5"/>
<path class="st1" d="M1230.7,2400.1c632.6,0,1147.9-502.4,1168.7-1130c-20.7-21.4-41-42-60.6-61.9
	c-80.1-81.3-160.4-148.5-235.4-203.9c-73.8-54.4,1.3-514.2-27-529.3c-74.6-40-420.8,263.8-490.8,230.7
	c-138.4-65.4-273.9-111.7-429.8-117c-139.4-4.7-267.3,24.3-380.8,69.7c-39.8,15.9-238.6-300.6-324.7-246.1
	c-64.7,41-21.9,454.7-43.2,472.5c-54.4,45.4-97.8,87.1-128.9,116.8c-24.6,23.5-115.1,112.4-216.8,245.8
	C70.5,1885.6,590.4,2400.1,1230.7,2400.1z"/>
<path class="st2" d="M2176.4,1300.3c-82.7-182.1-300.5-427.5-666.8-591.7c-173.7-77.9-322.8-86-362.8-86
	c-93.9,0-265.7,16.5-434.5,126.2c-55.8,36.2-333.3,237.8-428.8,476.9V1677l1892.8,41.8V1300.3z"/>
<path class="st0" d="M1230.7,2400.1c548.8,0,1009.3-378.1,1135.3-888c-35.6-42.9-70.2-81.3-100.3-114.5
	c-71.8-79.5-458.1-507.4-1079.8-507.6c-130.1-0.1-570.1-0.2-903.4,339.8c-75.5,77.1-140.1,166.1-191.9,262.3
	C209.3,2012.1,674.7,2400.1,1230.7,2400.1z"/>
<g>
	<path d="M606.2,1109.9c-43.3-8.8-78.9-1.7-106.8,21.5c-25.4,20.9-42.4,52.9-51.2,96.1c-7.7,38-5.5,71.4,6.9,100.2
		c10.8,25.1,28.2,44,52.3,56.8c8.7,4.6,13.5,14.4,11.5,24.1l-12.5,61.3c-2.4,12,5.3,23.7,17.3,26.2l3,0.6c12,2.4,23.7-5.3,26.2-17.3
		l19.4-95.1c2.4-12-5.3-23.7-17.3-26.2c-27.3-5.6-45.8-20.8-55.3-45.7c-8.1-21-9.1-46-3.2-75c6-29.5,16.6-52,31.8-67.6
		c7.5-7.7,15.8-13.4,24.9-16.9c19.9-7.8,37.8-4.1,44.2-2.7c33.2,7.5,42,42.9,83.6,40c10.5-9.7,1.5-35.6-10-50.6
		C653.2,1116.5,624.2,1113.6,606.2,1109.9z"/>
	<path d="M774.1,1205.6c-24.4-0.8-45.5,7.1-63.4,23.8c-17.9,16.7-27.3,37.2-28.1,61.6s7.1,45.5,23.8,63.4
		c16.7,17.9,37.2,27.3,61.6,28.1c24.3,0.8,45.5-7.1,63.5-23.8c18-16.7,27.4-37.2,28.2-61.6c0.8-24.4-7.1-45.5-23.9-63.4
		C819,1215.8,798.4,1206.5,774.1,1205.6z"/>
	<path d="M1239.9,1263.4c15-6.9,22.8-17.8,23.3-32.7c0.4-12.1-3-22.2-10.3-30.4c-7.3-8.2-16.9-12.4-28.8-12.9
		c-14.4-0.5-30.7,8.4-48.9,26.8c0,0,0,0,0,0l2.8-80.4l-20.9-0.7v0l-3.7,106.3c0,1.3-1.9,3.3-5.5,5.9l-20.7-0.7c0,0,0,0,0,0
		l-0.8,23.2l72.8,2.5C1215,1270.9,1228.5,1268.6,1239.9,1263.4z M1188.8,1246.8l-12.1-0.4v0c18.8-24.4,34.3-36.4,46.4-36
		c5.5,0.2,10.1,2.2,13.7,6.1c0.2,0.3,0.5,0.6,0.7,0.9C1251,1238.5,1234.8,1248.3,1188.8,1246.8z"/>
	<path d="M1372.8,1324.8c2-12.9-9.1-24.1-21.5-24.2c-12-0.1-23,10.1-21.9,22.7l-0.1,2.3c0.7,4,1.8,10.5,3.4,19.7
		c1.5,9.1,2.2,16.1,2.1,20.8c-0.4,10.8-3.2,20.6-8.3,29.2c-5.2,8.7-13.6,16.2-25.3,22.7c-12.5,6.9-28.1,11.8-46.7,14.6
		c-18.6,2.9-40.4,3.9-65.4,3c-24.9-0.9-46.5-3.4-65.1-7.5c-18.5-4.2-33.8-10.1-45.8-17.8c-11.4-7.1-19.3-15.2-23.7-24.3
		c-4.5-9.1-6.5-19-6.2-29.8c0.2-4.7,1.3-11.6,3.5-20.6c2.2-9,3.7-15.5,4.7-19.4c0-0.8,0.1-1.5,0.1-2.3c1.2-12.2-6.2-22.5-15.1-24.6
		c-11-2.7-26.9,6.6-28.3,23.1c-1,5-2.3,11.7-4,20.1c-1.6,8.4-2.6,16.8-2.9,25.2c-1.3,36.7,13.1,65.5,43,86.4
		c30,20.9,75.8,32.4,137.6,34.5c62.6,2.2,109.5-6.1,140.7-24.7c31.2-18.7,47.4-46.4,48.7-83.3c0.3-8.4-0.1-16.8-1.1-25.3
		C1374.3,1336.8,1373.6,1329.8,1372.8,1324.8z"/>
	<path d="M1618.5,1234.9c-24.4-0.8-45.5,7.1-63.4,23.8c-17.9,16.7-27.3,37.2-28.1,61.6c-0.8,24.4,7.1,45.5,23.8,63.4
		c16.7,17.9,37.2,27.3,61.6,28.1c24.3,0.8,45.5-7.1,63.5-23.8c18-16.7,27.4-37.2,28.2-61.6c0.8-24.4-7.1-45.5-23.9-63.4
		C1663.4,1245.2,1642.8,1235.8,1618.5,1234.9z"/>
	<path d="M1866.1,1142c-35-28.3-77-22.9-107-20.3c-42.7,3.7-62,19.3-67.3,23.9c-6.9,6-33.7,24.3-21.5,37.6
		c17.2,18.7,69.1-15.3,98.2-21.5c27.8-6,50.9,0.3,69.3,18.9c15.3,15.4,26.2,37.9,32.5,67.3c6.2,28.9,5.4,53.9-2.4,75
		c-9.2,25-27.5,40.5-54.8,46.3c-12,2.6-19.6,14.4-17,26.3l20.4,94.9c2.6,12,14.4,19.6,26.3,17l3-0.6c12-2.6,19.6-14.4,17-26.3
		l-13.1-61.2c-2.1-9.7,2.6-19.5,11.2-24.2c23.9-13,41.2-32.1,51.7-57.3c12-28.9,13.9-62.3,5.8-100.2
		C1909,1194.5,1891.6,1162.7,1866.1,1142z"/>
</g>
<path class="st1" d="M915.9,1898.7c-12.5-26.3-38.1-47.1-65.5-54c-66.7-16.6-132.8,52.9-162.3,84
	c-71.3,74.9-123.8,183.9-132.4,257.1c32.7,23.2,66.7,44.7,101.8,64.4c53.2-22.6,107.9-64.4,112.3-67.8
	C858.4,2113.9,956,1982.8,915.9,1898.7z"/>
<path class="st1" d="M1897.4,2115.2c-15.4-139.7-108.5-307.7-215.1-305.4c-7.6,0.2-36.3,1.2-60.2,21.5
	c-81.6,69.3-32,298.6,98.9,408.7c6.9,5.8,23,19.4,42.9,31.8c47.7-24.5,93.4-52.1,136.9-82.7
	C1902,2157.4,1898.8,2127.8,1897.4,2115.2z"/>
<path class="st3" d="M1122,355c-23.2-21-114-51.2-137.7-34.4c-18.8,13.4,14.8,61.7,38.7,81.7c33.2,27.8,90.9,40.6,147.6,37.1
	C1165.1,416.8,1152.5,382.6,1122,355z"/>
<path class="st3" d="M1332.8,303.3c-21.9-14.5-104,15.8-129.1,47.3c-24.9,31.4-29.9,66.9-30.4,88.6c47.7-3.4,94.5-18.2,125-45.5
	C1325.1,369.8,1352,316.1,1332.8,303.3z"/>
<path class="st4" d="M599.4,611.7c-76.6-67.8-87.5-67-93.2-64.5c-11.8,5.1-12.9,22.1-15.8,129.1c-2.5,92.2-2.2,102.5,7.2,110.4
	c40,33.8,179-32.8,177.8-91.8C675.3,688.7,673.5,677.3,599.4,611.7z"/>
<path class="st4" d="M1992.2,598.8c-7.6-3.7-20.7-5.3-116.2,60.2c-83.7,57.5-86.7,68.1-87.5,74.6c-7.5,62.8,152.5,156.6,205.1,117.6
	c18.9-14,19.3-50.5,20.1-123.3C2014.5,652.5,2015,609.9,1992.2,598.8z"/>
<path class="st5" d="M883.2,701.3c-46.3,29-103.2,70.6-160.6,129.1c-62.4,63.6-105.3,126.6-134.1,176.4c0,0,0,0,0,0
	c74.9-35.2,149.2-60,219-77.5c0,0,0,0,0,0c72.3-57.3,135.8-89,181.8-107.6c32.8-13.3,75.6-24.6,88.9-60.2c8.6-23,3.2-50.6-10-67.4
	C1039.9,658.2,963.2,656.1,883.2,701.3z"/>
<path class="st5" d="M1412.2,710.7c-38.2-21.2-89.4-44.5-147.6-38.1c-35.8,4-47.3,16-51.6,22.9c-12.2,19.6-8.7,47.8-1.7,66
	c0.3,0.7,2,5.8,4.8,10.3c8.5,13.7,27.6,27,84.1,49.9c45.9,18.6,109.4,41.7,181.8,99c5.3,1.9,10.5,3.7,15.8,5.5
	c72.3,17.8,140,40.8,202.9,67.2c-48.2-72.3-96.5-126-133.7-163C1506.6,770.3,1456.7,735.5,1412.2,710.7z"/>
<path class="st6" d="M943,703.5c-24.3,9.7-46.7,37.2-40.2,60.2c7.5,26.3,50.2,37.8,80.3,25.8c24.3-9.7,46.7-37.2,40.2-60.2
	C1015.8,703.1,973.1,691.5,943,703.5z"/>
<path class="st6" d="M1329.9,701.2c-25.4-6.1-59.6,3.5-67.5,26.1c-9,25.8,19.2,59.8,50.7,67.4c25.4,6.1,59.6-3.5,67.5-26.1
	C1389.7,742.8,1361.4,708.8,1329.9,701.2z"/>
<path class="st6" d="M1141.3,793.2c-17,2.1-35.8,15.8-35.4,31.5c0.4,17.9,25.5,32.3,46.6,29.7c17-2.1,35.8-15.8,35.4-31.5
	C1187.5,805,1162.4,790.6,1141.3,793.2z"/>
<path class="st7" d="M611.2,1533.3c-12.5,0.2-18.4,14.4-25.1,26.1c-8.2,14.3-7,34.4-0.8,36.3c6.5,2.1,22-15,26.8-33.1
	C615.4,1550.3,619.3,1533.1,611.2,1533.3z"/>
<path class="st7" d="M655.3,1522.6c-7.4,0.1-22.3,18.9-28.6,34.8c-5.3,13.5-6.9,30.8,0.2,30.9c7.2,0.1,23.4-18,30-34.4
	C662.5,1539.4,662.3,1522.5,655.3,1522.6z"/>
<path class="st7" d="M699,1516.7c-5.4-2.4-20.1,11.7-27.1,27c-6.9,15-7.8,34.1-2.1,36c5.9,1.9,19.1-14.9,25.5-30
	C700.6,1537.3,704.4,1519,699,1516.7z"/>
<path class="st7" d="M1740.8,1542.4c-4.9,3.9-0.3,24.6,10.7,37.6c7.5,8.9,18.2,20.7,22.3,14.4c6.3-9.6-1.2-21.5-6.4-32.7
	C1761.1,1548.1,1745.5,1538.7,1740.8,1542.4z"/>
<path class="st7" d="M1703.4,1530.2c-3.8,5.5,1.3,27.2,10.1,40.7c7.7,11.9,20.4,20.4,24,15c3.8-5.7-2.5-26.8-11-39.8
	C1719.2,1535.1,1707.1,1524.9,1703.4,1530.2z"/>
<path class="st7" d="M1665,1523.7c-4.5,3.5,1.2,22.3,9.1,35c6.4,10.4,18.1,22.8,22.6,19.9c4.6-2.9,1.7-21.4-6-34.7
	C1683,1530.9,1669.3,1520.3,1665,1523.7z"/>
<circle class="st8" cx="1235.7" cy="1230.7" r="1169.5"/>
<path class="st5" d="M1190.3,457.1L1190,440l-38.7,3.8l5.1,18.1c0.4,5.9,0.8,11.8,1.2,17.8c0.3,5.5,0.7,10.9,0.9,16.3
	c-0.6,10.1-1.2,20.3-1.8,30.4c-1.9,17.9-3.9,36.3-3.2,55l31.3,0.4l3.2-52.8C1189.8,511,1190.3,463.9,1190.3,457.1z"/>
</svg>
